<svg width="30" height="30" viewBox="0 0 30 30" fill="none" xmlns="http://www.w3.org/2000/svg">
<g clip-path="url(#clip0_67_3235)">
<path d="M20.625 6.5625H9.375C7.13724 6.5625 4.99112 7.45145 3.40879 9.03379C1.82645 10.6161 0.9375 12.7622 0.9375 15C0.9375 17.2378 1.82645 19.3839 3.40879 20.9662C4.99112 22.5486 7.13724 23.4375 9.375 23.4375H20.625C22.8628 23.4375 25.0089 22.5486 26.5912 20.9662C28.1736 19.3839 29.0625 17.2378 29.0625 15C29.0625 12.7622 28.1736 10.6161 26.5912 9.03379C25.0089 7.45145 22.8628 6.5625 20.625 6.5625ZM9.375 19.6875C8.4479 19.6875 7.54162 19.4126 6.77076 18.8975C5.99991 18.3824 5.3991 17.6504 5.04431 16.7938C4.68953 15.9373 4.5967 14.9948 4.77757 14.0855C4.95844 13.1762 5.40488 12.341 6.06044 11.6854C6.716 11.0299 7.55123 10.5834 8.46051 10.4026C9.3698 10.2217 10.3123 10.3145 11.1688 10.6693C12.0254 11.0241 12.7574 11.6249 13.2725 12.3958C13.7876 13.1666 14.0625 14.0729 14.0625 15C14.0625 16.2432 13.5686 17.4355 12.6896 18.3146C11.8105 19.1936 10.6182 19.6875 9.375 19.6875Z" fill="#919191"/>
</g>
<defs>
<clipPath id="clip0_67_3235">
<rect width="30" height="30" fill="white"/>
</clipPath>
</defs>
</svg>
