<svg width="30" height="30" viewBox="0 0 30 30" fill="none" xmlns="http://www.w3.org/2000/svg">
<path d="M20.625 6.5625H9.375C7.13724 6.5625 4.99112 7.45145 3.40879 9.03379C1.82645 10.6161 0.9375 12.7622 0.9375 15C0.9375 17.2378 1.82645 19.3839 3.40879 20.9662C4.99112 22.5486 7.13724 23.4375 9.375 23.4375H20.625C22.8628 23.4375 25.0089 22.5486 26.5912 20.9662C28.1736 19.3839 29.0625 17.2378 29.0625 15C29.0625 12.7622 28.1736 10.6161 26.5912 9.03379C25.0089 7.45145 22.8628 6.5625 20.625 6.5625ZM20.625 19.6875C19.6979 19.6875 18.7916 19.4126 18.0208 18.8975C17.2499 18.3824 16.6491 17.6504 16.2943 16.7938C15.9395 15.9373 15.8467 14.9948 16.0276 14.0855C16.2084 13.1762 16.6549 12.341 17.3104 11.6854C17.966 11.0299 18.8012 10.5834 19.7105 10.4026C20.6198 10.2217 21.5623 10.3145 22.4188 10.6693C23.2754 11.0241 24.0074 11.6249 24.5225 12.3958C25.0376 13.1666 25.3125 14.0729 25.3125 15C25.3125 16.2432 24.8186 17.4355 23.9396 18.3146C23.0605 19.1936 21.8682 19.6875 20.625 19.6875Z" fill="#180E19"/>
</svg>
